<svg width="80" height="104" viewBox="0 0 80 104" fill="none" xmlns="http://www.w3.org/2000/svg">
<g clip-path="url(#clip0_6:21)">
<path d="M57.2204 32.6957L46.6873 46.2686L50.7656 51.5239L61.2987 37.9509L57.2204 32.6957Z" fill="#66C05D"/>
<path d="M35.9094 60.1856L25.3762 73.7585L29.4545 79.0137L39.9877 65.4408L35.9094 60.1856Z" fill="#66C05D"/>
<path d="M50.5173 24.1044L39.9842 37.6773L44.0625 42.9326L54.5956 29.3596L50.5173 24.1044Z" fill="#66C05D"/>
<path d="M29.2355 51.5572L18.7023 65.1301L22.7806 70.3854L33.3138 56.8125L29.2355 51.5572Z" fill="#66C05D"/>
<path d="M22.7576 32.6953L18.6793 37.9506L29.2124 51.5235L33.2907 46.2682L22.7576 32.6953Z" fill="#66C05D"/>
<path d="M29.454 24.0953L25.3757 29.3506L35.9089 42.9235L39.9872 37.6683L29.454 24.0953Z" fill="#66C05D"/>
<path d="M50.7592 51.519L46.6809 56.7743L57.2141 70.3472L61.2923 65.0919L50.7592 51.519Z" fill="#66C05D"/>
<path d="M44.092 60.1567L40.0137 65.4119L50.5468 78.9848L54.6251 73.7296L44.092 60.1567Z" fill="#66C05D"/>
<path d="M54.6058 84.2663L50.5394 79.0264L40 92.6074L29.4606 79.0264L25.3942 84.2663L40 103.087L54.6058 84.2663Z" fill="#EFEFEF"/>
<path d="M18.6722 37.9626L14.6058 32.7227L0 51.5436L14.6058 70.3646L18.6722 65.1246L8.13278 51.5436L18.6722 37.9626Z" fill="#EFEFEF"/>
<path d="M65.3942 32.7227L61.3278 37.9626L71.8672 51.5436L61.3278 65.1246L65.3942 70.3646L80 51.5436L65.3942 32.7227Z" fill="#EFEFEF"/>
<path d="M50.5394 24.0608L54.6058 18.8209L40 0L25.3942 18.8209L29.4606 24.0608L40 10.4798L50.5394 24.0608Z" fill="#EFEFEF"/>
</g>
<defs>
<clipPath id="clip0_6:21">
<rect width="80" height="103.087" fill="white"/>
</clipPath>
</defs>
</svg>
